HIERARCHY
ROOT hip
{
  OFFSET 0 0 0
  CHANNELS 6 Xposition Yposition Zposition Zrotation Yrotation Xrotation
  JOINT abdomen
  {
    OFFSET 0 20.6881 -0.73152
    CHANNELS 3 Zrotation Xrotation Yrotation
    JOINT chest
    {
      OFFSET 0 11.7043 -0.48768
      CHANNELS 3 Zrotation Xrotation Yrotation
      JOINT neck
      {
        OFFSET 0 22.1894 -2.19456
        CHANNELS 3 Zrotation Xrotation Yrotation
        JOINT head
        {
          OFFSET -0.24384 7.07133 1.2192
          CHANNELS 3 Zrotation Xrotation Yrotation
          JOINT leftEye
          {
            OFFSET 4.14528 8.04674 8.04672
            CHANNELS 3 Zrotation Xrotation Yrotation
            End Site
            {
              OFFSET 1 0 0
            }
          }
          JOINT rightEye
          {
            OFFSET -3.6576 8.04674 8.04672
            CHANNELS 3 Zrotation Xrotation Yrotation
            End Site
            {
              OFFSET 1 0 0
            }
          }
        }
      }
      JOINT rCollar
      {
        OFFSET -2.68224 19.2634 -4.8768
        CHANNELS 3 Zrotation Xrotation Yrotation
        JOINT rShldr
        {
          OFFSET -8.77824 -1.95073 1.46304
          CHANNELS 3 Zrotation Xrotation Yrotation
          JOINT rForeArm
          {
            OFFSET -28.1742 -1.7115 0.48768
            CHANNELS 3 Zrotation Xrotation Yrotation
            JOINT rHand
            {
              OFFSET -22.5879 0.773209 7.07136
              CHANNELS 3 Zrotation Xrotation Yrotation
              JOINT rThumb1
              {
                OFFSET -1.2192 -0.487915 3.41376
                CHANNELS 3 Zrotation Xrotation Yrotation
                JOINT rThumb2
                {
                  OFFSET -3.37035 -0.52449 3.41376
                  CHANNELS 3 Zrotation Xrotation Yrotation
                  End Site
                  {
                    OFFSET -1.78271 -1.18214 1.43049
                  }
                }
              }
              JOINT rIndex1
              {
                OFFSET -7.75947 0.938293 5.60832
                CHANNELS 3 Zrotation Xrotation Yrotation
                JOINT rIndex2
                {
                  OFFSET -2.54057 -0.884171 1.56538
                  CHANNELS 3 Zrotation Xrotation Yrotation
                  End Site
                  {
                    OFFSET -1.62519 -0.234802 1.16502
                  }
                }
              }
              JOINT rMid1
              {
                OFFSET -8.24714 1.18213 3.41376
                CHANNELS 3 Zrotation Xrotation Yrotation
                JOINT rMid2
                {
                  OFFSET -3.10165 -0.590103 1.0647
                  CHANNELS 3 Zrotation Xrotation Yrotation
                  End Site
                  {
                    OFFSET -2.48547 -0.328903 0.83742
                  }
                }
              }
              JOINT rRing1
              {
                OFFSET -8.82822 0.546677 1.51678
                CHANNELS 3 Zrotation Xrotation Yrotation
                JOINT rRing2
                {
                  OFFSET -2.60934 -0.819778 -0.0198488
                  CHANNELS 3 Zrotation Xrotation Yrotation
                  End Site
                  {
                    OFFSET -2.33842 -0.294052 0.168128
                  }
                }
              }
              JOINT rPinky1
              {
                OFFSET -8.27202 -0.0477905 -0.4584
                CHANNELS 3 Zrotation Xrotation Yrotation
                JOINT rPinky2
                {
                  OFFSET -1.82734 -0.647385 -0.700984
                  CHANNELS 3 Zrotation Xrotation Yrotation
                  End Site
                  {
                    OFFSET -1.69225 -0.51767 -0.607171
                  }
                }
              }
            }
          }
        }
      }
      JOINT lCollar
      {
        OFFSET 2.68224 19.2634 -4.8768
        CHANNELS 3 Zrotation Xrotation Yrotation
        JOINT lShldr
        {
          OFFSET 8.77824 -1.95073 1.46304
          CHANNELS 3 Zrotation Xrotation Yrotation
          JOINT lForeArm
          {
            OFFSET 28.1742 -1.7115 0.48768
            CHANNELS 3 Zrotation Xrotation Yrotation
            JOINT lHand
            {
              OFFSET 22.5879 0.773209 7.07136
              CHANNELS 3 Zrotation Xrotation Yrotation
              JOINT lThumb1
              {
                OFFSET 1.2192 -0.487915 3.41376
                CHANNELS 3 Zrotation Xrotation Yrotation
                JOINT lThumb2
                {
                  OFFSET 3.37035 -0.52449 3.41376
                  CHANNELS 3 Zrotation Xrotation Yrotation
                  End Site
                  {
                    OFFSET 1.78271 -1.18214 1.43049
                  }
                }
              }
              JOINT lIndex1
              {
                OFFSET 7.75947 0.938293 5.60832
                CHANNELS 3 Zrotation Xrotation Yrotation
                JOINT lIndex2
                {
                  OFFSET 2.54057 -0.884171 1.56538
                  CHANNELS 3 Zrotation Xrotation Yrotation
                  End Site
                  {
                    OFFSET 1.62519 -0.234802 1.16502
                  }
                }
              }
              JOINT lMid1
              {
                OFFSET 8.24714 1.18213 3.41376
                CHANNELS 3 Zrotation Xrotation Yrotation
                JOINT lMid2
                {
                  OFFSET 3.10165 -0.590103 1.0647
                  CHANNELS 3 Zrotation Xrotation Yrotation
                  End Site
                  {
                    OFFSET 2.48547 -0.328903 0.83742
                  }
                }
              }
              JOINT lRing1
              {
                OFFSET 8.82822 0.546677 1.51678
                CHANNELS 3 Zrotation Xrotation Yrotation
                JOINT lRing2
                {
                  OFFSET 2.60934 -0.819778 -0.0198488
                  CHANNELS 3 Zrotation Xrotation Yrotation
                  End Site
                  {
                    OFFSET 2.33842 -0.294052 0.168128
                  }
                }
              }
              JOINT lPinky1
              {
                OFFSET 8.27202 -0.0477905 -0.4584
                CHANNELS 3 Zrotation Xrotation Yrotation
                JOINT lPinky2
                {
                  OFFSET 1.82734 -0.647385 -0.700984
                  CHANNELS 3 Zrotation Xrotation Yrotation
                  End Site
                  {
                    OFFSET 1.69225 -0.51767 -0.607171
                  }
                }
              }
            }
          }
        }
      }
    }
  }
  JOINT rButtock
  {
    OFFSET -8.77824 4.35084 1.2192
    CHANNELS 3 Zrotation Xrotation Yrotation
    JOINT rThigh
    {
      OFFSET 0 -1.70687 -2.19456
      CHANNELS 3 Zrotation Xrotation Yrotation
      JOINT rShin
      {
        OFFSET 0 -36.8199 0.73152
        CHANNELS 3 Zrotation Xrotation Yrotation
        JOINT rFoot
        {
          OFFSET 0.73152 -45.1104 -5.12064
          CHANNELS 3 Zrotation Xrotation Yrotation
          End Site
          {
            OFFSET -1.1221 -3.69964 12.103
          }
        }
      }
    }
  }
  JOINT lButtock
  {
    OFFSET 8.77824 4.35084 1.2192
    CHANNELS 3 Zrotation Xrotation Yrotation
    JOINT lThigh
    {
      OFFSET 0 -1.70687 -2.19456
      CHANNELS 3 Zrotation Xrotation Yrotation
      JOINT lShin
      {
        OFFSET 0 -36.8199 0.73152
        CHANNELS 3 Zrotation Xrotation Yrotation
        JOINT lFoot
        {
          OFFSET -0.73152 -45.1104 -5.12064
          CHANNELS 3 Zrotation Xrotation Yrotation
          End Site
          {
            OFFSET 1.1221 -3.69964 12.103
          }
        }
      }
    }
  }
}
MOTION
Frames:	7
Frame Time:	0.00833333
18.8437 103.824 14.7397 -121.115 -87.8086 141.816 2.69037 8.28153 4.62436 0.770234 -17.4874 1.16492 -2.44717 -1.46293 -0.792905 5.29198 31.5322 -5.85909 -0.0 0.0 0.0 -0.0 0.0 0.0 1.03585e-13 5.97623e-13 -1.95588e-13 46.9782 38.948 -1.20646 -25.4356 -22.0638 54.5426 -0.269453 -14.6015 -2.09834 1.84054e-09 8.54756e-10 -3.88537e-09 3.22785e-09 1.48778e-09 -6.69378e-09 1.84054e-09 8.54751e-10 -3.88539e-09 7.73091 5.47488 0.417314 1.84054e-09 8.5475e-10 -3.88538e-09 2.90554 0.965183 0.102902 1.84054e-09 8.54746e-10 -3.88537e-09 10.2786 0.731801 0.0259123 1.84053e-09 8.54753e-10 -3.88536e-09 2.22167 -0.733487 -0.20892 1.03402e-13 5.97625e-13 -1.95812e-13 -74.7278 36.1329 9.14128 23.9241 -18.9553 -49.3743 0.00116817 -0.995276 0.13989 -2.64994e-09 2.58723e-09 3.33705e-09 -4.58698e-09 4.47097e-09 5.76036e-09 -2.64994e-09 2.58723e-09 3.33705e-09 -7.73091 5.47488 -0.417314 -2.64994e-09 2.58724e-09 3.33706e-09 -2.90554 0.965183 -0.102902 -2.64995e-09 2.58724e-09 3.33706e-09 -10.2786 0.731801 -0.0259123 -2.64993e-09 2.58724e-09 3.33706e-09 -2.22167 -0.733487 0.20892 -2.03217e-16 0.0 -3.88251e-19 19.4896 -19.8921 16.5562 0.103603 18.6045 1.29825 -1.42045 -9.15754 -20.8897 2.03217e-16 0.0 3.88251e-19 -20.0357 -62.236 -18.9297 0.882478 64.4503 -3.332 -10.6635 -28.5347 -16.9569
18.2113 104.899 14.8223 -117.181 -87.5015 138.561 2.93438 8.0616 4.69643 0.805637 -17.4188 1.18067 -2.42874 -1.52397 -0.797044 5.71795 31.5513 -5.99563 -0.0 0.0 0.0 -0.0 0.0 0.0 4.85115e-14 -9.67539e-13 -1.48843e-13 47.6667 38.7162 -2.09201 -25.4856 -22.1795 54.7325 -0.281256 -14.8949 -2.1426 1.14344e-09 4.86707e-10 -2.60461e-09 2.00676e-09 8.48035e-10 -4.48844e-09 1.14344e-09 4.86707e-10 -2.60462e-09 7.73091 5.47488 0.417314 1.14344e-09 4.86704e-10 -2.60461e-09 2.90554 0.965183 0.102902 1.14344e-09 4.86703e-10 -2.60461e-09 10.2786 0.731801 0.0259123 1.14343e-09 4.86706e-10 -2.6046e-09 2.22167 -0.733487 -0.20892 4.84209e-14 -9.67539e-13 -1.49036e-13 -73.9515 36.2522 8.00321 23.9574 -19.0172 -49.479 0.000756336 -0.813505 0.114338 -1.58637e-09 1.74199e-09 2.37596e-09 -2.74629e-09 3.01003e-09 4.10088e-09 -1.58637e-09 1.74199e-09 2.37596e-09 -7.73091 5.47488 -0.417314 -1.58637e-09 1.74199e-09 2.37596e-09 -2.90554 0.965183 -0.102902 -1.58638e-09 1.74199e-09 2.37596e-09 -10.2786 0.731801 -0.0259123 -1.58637e-09 1.74199e-09 2.37596e-09 -2.22167 -0.733487 0.20892 -2.03217e-16 0.0 -3.88251e-19 19.2908 -20.9046 15.84 0.102848 18.5356 1.33658 -1.0419 -7.57992 -22.9615 2.03217e-16 0.0 3.88251e-19 -17.9053 -61.2379 -17.2255 0.760432 62.0497 -3.08668 -10.5438 -27.9335 -16.9511
17.594 105.985 14.916 -114.491 -87.0797 136.49 3.22924 7.87657 4.77275 0.81238 -17.3307 1.19688 -2.40144 -1.58066 -0.778718 6.15583 31.6209 -6.10811 -0.0 0.0 0.0 -0.0 0.0 0.0 -7.33248e-15 -2.11549e-12 -8.61689e-14 48.3266 38.6186 -2.98489 -25.5164 -22.2515 54.8486 -0.286168 -15.0216 -2.16169 3.21016e-10 6.46578e-11 -1.03543e-09 5.65818e-10 1.14104e-10 -1.78583e-09 3.21015e-10 6.46632e-11 -1.03544e-09 7.73091 5.47488 0.417314 3.21017e-10 6.46589e-11 -1.03543e-09 2.90554 0.965183 0.102902 3.21022e-10 6.46603e-11 -1.03543e-09 10.2786 0.731801 0.0259123 3.21011e-10 6.46614e-11 -1.03542e-09 2.22167 -0.733487 -0.20892 -7.34117e-15 -2.11549e-12 -8.63335e-14 -73.2279 36.2293 6.9444 23.9803 -19.0603 -49.5488 0.000518131 -0.651118 0.0915127 -3.94573e-10 7.11311e-10 1.11327e-09 -6.83291e-10 1.2286e-09 1.9206e-09 -3.9457e-10 7.11316e-10 1.11328e-09 -7.73091 5.47488 -0.417314 -3.94572e-10 7.11314e-10 1.11328e-09 -2.90554 0.965183 -0.102902 -3.94581e-10 7.11315e-10 1.11328e-09 -10.2786 0.731801 -0.0259123 -3.9457e-10 7.11313e-10 1.11327e-09 -2.22167 -0.733487 0.20892 -2.03217e-16 0.0 -3.88251e-19 18.9255 -22.174 14.4944 0.103247 18.8789 1.36878 -0.40249 -5.59739 -24.5771 2.03217e-16 0.0 3.88251e-19 -15.7216 -60.1507 -15.4374 0.661625 59.5611 -2.85559 -10.3942 -27.2758 -16.9292
16.9847 107.045 15.0301 -113.319 -86.5833 135.844 3.40129 7.77371 4.81643 0.799432 -17.2436 1.2081 -2.29921 -1.63877 -0.716993 6.44925 31.7487 -6.1308 -0.0 0.0 0.0 -0.0 0.0 0.0 -3.40058e-14 -1.65703e-12 -2.1419e-14 48.9223 38.6274 -3.82808 -25.5177 -22.2547 54.8503 -0.2786 -14.8568 -2.13657 -3.84764e-10 -2.87411e-10 2.91084e-10 -6.69953e-10 -4.98275e-10 4.99332e-10 -3.84767e-10 -2.87402e-10 2.91078e-10 7.73091 5.47488 0.417314 -3.84764e-10 -2.87407e-10 2.91088e-10 2.90554 0.965183 0.102902 -3.84758e-10 -2.87404e-10 2.91087e-10 10.2786 0.731801 0.0259123 -3.84767e-10 -2.87404e-10 2.91091e-10 2.22167 -0.733487 -0.20892 -3.39808e-14 -1.65703e-12 -2.15681e-14 -72.583 36.1155 6.03271 24.005 -19.1067 -49.6256 0.000448429 -0.604657 0.0849822 4.60256e-10 -1.52749e-10 -1.27346e-10 7.97247e-10 -2.64867e-10 -2.21778e-10 4.60258e-10 -1.52743e-10 -1.27337e-10 -7.73091 5.47488 -0.417314 4.60257e-10 -1.52747e-10 -1.2734e-10 -2.90554 0.965183 -0.102902 4.60248e-10 -1.52745e-10 -1.27338e-10 -10.2786 0.731801 -0.0259123 4.60258e-10 -1.52748e-10 -1.27346e-10 -2.22167 -0.733487 0.20892 -2.03217e-16 0.0 -3.88251e-19 18.3124 -23.6284 12.4915 0.106598 19.8709 1.36581 0.713715 -2.65587 -25.2881 2.03217e-16 0.0 3.88251e-19 -13.7771 -58.94 -13.71 0.579443 57.1321 -2.63859 -10.2633 -26.6178 -16.9841
16.369 108.035 15.1693 -113.558 -86.0636 136.492 3.51324 7.76623 4.84432 0.764048 -17.1606 1.22114 -2.09084 -1.72764 -0.596263 6.54296 31.9805 -6.03191 -0.0 0.0 0.0 -0.0 0.0 0.0 -1.09333e-14 1.72874e-12 5.75812e-14 49.41 38.8056 -4.59127 -25.4844 -22.1771 54.7255 -0.254395 -14.2641 -2.04713 -1.00958e-09 -5.68286e-10 1.38533e-09 -1.76194e-09 -9.86955e-10 2.38524e-09 -1.00958e-09 -5.68276e-10 1.38532e-09 7.73091 5.47488 0.417314 -1.00958e-09 -5.68281e-10 1.38533e-09 2.90554 0.965183 0.102902 -1.00957e-09 -5.68277e-10 1.38533e-09 10.2786 0.731801 0.0259123 -1.00958e-09 -5.68278e-10 1.38534e-09 2.22167 -0.733487 -0.20892 -1.09535e-14 1.72874e-12 5.74325e-14 -72.0496 35.8728 5.30433 24.0383 -19.1689 -49.7309 0.000556382 -0.757684 0.106489 8.16444e-10 -8.5142e-10 -1.50996e-09 1.41635e-09 -1.47253e-09 -2.60976e-09 8.16441e-10 -8.51413e-10 -1.50995e-09 -7.73091 5.47488 -0.417314 8.16444e-10 -8.51419e-10 -1.50996e-09 -2.90554 0.965183 -0.102902 8.16436e-10 -8.51417e-10 -1.50996e-09 -10.2786 0.731801 -0.0259123 8.16446e-10 -8.51419e-10 -1.50996e-09 -2.22167 -0.733487 0.20892 -2.03217e-16 0.0 -3.88251e-19 17.2907 -25.2715 9.3757 0.137839 21.5299 1.30495 2.42301 2.00462 -24.8474 2.03217e-16 0.0 3.88251e-19 -11.9744 -57.5969 -11.9783 0.506389 54.727 -2.42394 -10.1633 -25.9351 -17.1614
15.7264 108.918 15.3336 -115.092 -85.5748 138.288 3.62105 7.82868 4.86723 0.703143 -17.0715 1.23614 -1.81565 -1.83492 -0.431021 6.52292 32.2977 -5.85033 -0.0 0.0 0.0 -0.0 0.0 0.0 4.17193e-14 7.07298e-12 1.52931e-13 49.834 39.1453 -5.31879 -25.4222 -22.0327 54.4965 -0.220897 -13.3442 -1.90978 -1.64907e-09 -8.33474e-10 2.47987e-09 -2.87858e-09 -1.44854e-09 4.27238e-09 -1.64907e-09 -8.33464e-10 2.47987e-09 7.73091 5.47488 0.417314 -1.64907e-09 -8.33468e-10 2.47988e-09 2.90554 0.965183 0.102902 -1.64907e-09 -8.33465e-10 2.47988e-09 10.2786 0.731801 0.0259123 -1.64907e-09 -8.33465e-10 2.47989e-09 2.22167 -0.733487 -0.20892 4.16021e-14 7.07299e-12 1.52772e-13 -71.6141 35.4957 4.72275 24.0723 -19.2329 -49.8391 0.00108536 -1.03944 0.146095 9.34635e-10 -1.54076e-09 -3.12374e-09 1.62468e-09 -2.6641e-09 -5.39717e-09 9.34623e-10 -1.54075e-09 -3.12373e-09 -7.73091 5.47488 -0.417314 9.34633e-10 -1.54076e-09 -3.12374e-09 -2.90554 0.965183 -0.102902 9.34627e-10 -1.54076e-09 -3.12374e-09 -10.2786 0.731801 -0.0259123 9.34639e-10 -1.54076e-09 -3.12374e-09 -2.22167 -0.733487 0.20892 -2.03217e-16 0.0 -3.88251e-19 15.7702 -27.0659 5.22979 0.194329 23.7446 1.20573 4.30842 8.01178 -23.7317 2.03217e-16 0.0 3.88251e-19 -10.255 -56.1329 -10.2312 0.446392 52.292 -2.21242 -10.064 -25.2116 -17.4034
15.0459 109.67 15.5208 -117.833 -85.1618 141.128 3.54081 7.95042 4.83915 0.625293 -16.9771 1.23771 -1.51379 -1.90385 -0.245493 6.4449 32.6111 -5.62649 -0.0 0.0 0.0 -0.0 0.0 0.0 9.27823e-14 1.21303e-11 2.35662e-13 50.2838 39.5136 -6.06069 -25.3358 -21.8353 54.1759 -0.188548 -12.3281 -1.75973 -2.15124e-09 -1.04408e-09 3.37689e-09 -3.75542e-09 -1.8154e-09 5.81943e-09 -2.15125e-09 -1.04407e-09 3.37689e-09 7.73091 5.47488 0.417314 -2.15125e-09 -1.04407e-09 3.3769e-09 2.90554 0.965183 0.102902 -2.15124e-09 -1.04407e-09 3.3769e-09 10.2786 0.731801 0.0259123 -2.15125e-09 -1.04407e-09 3.37692e-09 2.22167 -0.733487 -0.20892 9.25652e-14 1.21303e-11 2.35486e-13 -71.2233 35.0856 4.24108 24.0979 -19.2811 -49.9207 0.00199007 -1.31497 0.184837 9.83113e-10 -2.10096e-09 -4.53265e-09 1.71194e-09 -3.63244e-09 -7.83071e-09 9.83094e-10 -2.10095e-09 -4.53264e-09 -7.73091 5.47488 -0.417314 9.83111e-10 -2.10096e-09 -4.53265e-09 -2.90554 0.965183 -0.102902 9.83106e-10 -2.10096e-09 -4.53265e-09 -10.2786 0.731801 -0.0259123 9.83119e-10 -2.10096e-09 -4.53265e-09 -2.22167 -0.733487 0.20892 -2.03217e-16 0.0 -3.88251e-19 13.8466 -28.9013 0.859326 0.236405 26.558 1.10306 5.86922 14.1778 -22.4678 2.03217e-16 0.0 3.88251e-19 -8.92698 -54.5601 -8.65895 0.401799 49.9475 -2.01443 -9.9507 -24.5159 -17.6461
